<?xml version="1.0" encoding="UTF-8"?>
<!DOCTYPE svg PUBLIC "-//W3C//DTD SVG 1.1//EN" "http://www.w3.org/Graphics/SVG/1.1/DTD/svg11.dtd">
<!-- Creator: CorelDRAW X8 -->
<svg xmlns="http://www.w3.org/2000/svg" xml:space="preserve" width="31.7209mm" height="10.2089mm" version="1.1"
     style="shape-rendering:geometricPrecision; text-rendering:geometricPrecision; image-rendering:optimizeQuality; fill-rule:evenodd; clip-rule:evenodd"
     viewBox="0 0 2567 826"
>
 <defs>
  <style type="text/css">
   <![CDATA[
    .fil2 {fill:#151C39}
    .fil1 {fill:#00A3E0}
    .fil3 {fill:#151C39;fill-rule:nonzero}
    .fil0 {fill:#00A3E0;fill-rule:nonzero}
   ]]>
  </style>
 </defs>
    <g id="Camada_x0020_1">
  <metadata id="CorelCorpID_0Corel-Layer"/>
        <g id="_677598160">
   <path class="fil0"
         d="M2495 445l27 -1c4,-35 9,-69 13,-104 -18,-13 -51,-22 -90,-23 -49,-1 -96,5 -151,40 -3,2 -6,4 -9,6 46,-25 88,-29 131,-28 39,1 72,9 90,23 -3,29 -7,58 -11,87z"/>
            <path class="fil1"
                  d="M2539 415l16 0c4,-32 8,-65 12,-97 -22,-15 -59,-19 -85,-20 -34,0 -63,3 -91,12 20,-3 40,-5 63,-4 28,0 69,6 93,23l2 2 0 3c-3,27 -7,54 -10,81z"/>
            <g>
    <path class="fil1"
          d="M927 825c80,0 142,0 152,0 111,0 202,7 290,-71 31,-27 53,-65 68,-114 8,-27 9,-51 12,-78 0,-3 1,-13 1,-25l0 0c0,-15 0,-31 0,-48l0 -5 0 0c0,-61 0,-124 0,-140 -102,0 -204,0 -305,0l-2 0c-26,0 -53,-1 -79,0 -24,1 -44,8 -61,23 -16,14 -22,34 -22,62 0,28 0,14 0,42 20,0 127,0 153,0l176 0 0 13 0 0 0 33c0,65 -4,131 -72,156 -36,13 -60,12 -103,12l-208 0 0 1 -39 0c-67,0 -128,7 -175,-37 -40,-37 -33,-128 -33,-179l0 -3 0 0 -1 -170c0,-13 1,-25 2,-37 0,-3 0,-5 0,-7 1,-17 5,-33 11,-49 3,-7 6,-10 8,-15 -42,-23 -91,-20 -144,-19 -7,18 -9,26 -13,64 -1,3 -1,7 -1,11 -4,48 -3,161 -3,222l0 0c0,41 0,82 4,122 4,52 25,101 53,138 25,34 64,61 111,79 25,9 48,13 78,18 11,1 77,2 142,1l0 0z"/>
                <path class="fil1"
                      d="M783 2c56,27 110,79 132,138l178 0 0 0 92 0 0 0c34,3 66,12 93,37 11,10 18,25 23,43l145 0c-8,-46 -27,-88 -51,-121 -26,-35 -65,-62 -112,-79 -4,-2 -9,-3 -13,-5l0 0c-20,-6 -40,-9 -64,-13 -3,0 -10,-1 -19,-1l-2 0 -27 0 0 0 -293 0c-27,0 -56,-2 -82,1z"/>
   </g>
            <g>
    <path class="fil2"
          d="M910 497c0,-25 0,-49 0,-74 0,-62 3,-126 -3,-186 -4,-53 -25,-102 -53,-138 -25,-35 -64,-62 -111,-79 -25,-10 -48,-14 -78,-18 -22,-3 -250,-1 -284,-1l-114 0 -1 0c-10,0 -16,0 -19,1 -24,3 -44,7 -64,13l0 0c-5,1 -9,3 -14,5 -46,17 -85,44 -111,79 -25,32 -44,75 -51,120l144 0c5,-17 13,-32 24,-42 27,-25 58,-34 92,-37l0 0 295 0c67,0 128,-7 175,37 40,37 33,128 33,179l0 141 0 0 0 32c0,13 0,25 -1,37 -1,2 -1,4 -1,7 -1,16 -4,32 -10,48 -3,7 -6,11 -8,16 41,23 90,19 143,19 8,-18 10,-26 14,-64 0,-4 0,-8 1,-12 1,-19 2,-50 2,-83l0 0z"/>
                <path class="fil2"
                      d="M139 546c2,20 3,39 10,60 4,12 13,32 21,40 22,23 48,32 85,38 16,3 174,0 230,1l0 0 49 0c22,59 76,112 133,139 -26,4 -55,2 -83,2l-98 0 0 0c-28,1 -59,-1 -87,-1 -59,0 -138,4 -193,-8 -24,-5 -53,-15 -72,-26 -73,-40 -109,-94 -127,-175 -4,-20 -5,-37 -6,-55l0 0 0 0c0,-12 0,-24 -1,-37l0 -16 0 0 0 -92 0 -1c0,-1 1,-2 1,-4 0,-1 0,-2 1,-4 0,-1 0,-3 1,-4 0,-1 1,-3 1,-4 0,-1 1,-2 1,-3 1,-1 1,-3 2,-4 0,-1 1,-2 1,-3 1,-1 1,-1 2,-2 0,-1 1,-2 1,-3 1,-1 1,-2 2,-3 1,-1 2,-2 3,-3 0,-2 1,-2 2,-3 0,-1 1,-1 1,-2 1,-1 2,-2 2,-2 1,-1 1,-2 2,-2 0,-1 1,-1 2,-2 0,0 1,-1 2,-2 1,-1 2,-2 3,-2 0,-1 1,-1 1,-2 1,0 2,-1 2,-1 1,-1 2,-1 3,-2 1,0 1,-1 2,-1 1,-1 1,-1 2,-2 1,0 2,0 2,-1 1,0 2,-1 3,-1 1,-1 2,-1 3,-1 0,-1 1,-1 2,-2 1,0 2,0 3,-1 1,0 1,0 2,0 1,-1 2,-1 3,-1 1,-1 3,-1 5,-2 1,0 3,0 4,-1 1,0 3,0 4,0 1,0 3,-1 4,-1 2,0 3,0 4,0 2,0 3,0 4,0l0 0 0 0 0 0 0 0 0 0 0 0 0 0 0 0 0 0 0 0 0 0 0 0 0 0 0 0 0 0 1 0 0 0 0 0 0 0 0 0 0 0 0 0 0 0 0 0 0 0 0 0 0 0 0 0 0 0 0 0 0 0 0 0 0 0 0 0 0 0 1 0 0 0 0 0 0 0 0 0 0 0 0 0 0 0 0 0 0 0 0 0 0 0 0 0 0 0 0 0 0 0 0 0 1 0 0 0 0 0 0 0 0 0 0 0 0 0 0 0 0 0 0 0 0 0 0 0 0 0 1 0 0 0 0 0 0 0 0 0 0 0 0 0 0 0 0 0 0 0 0 0 1 0 0 0 0 0 0 0 0 0 0 0 0 0 0 0 0 0 1 0 0 0 0 0c81,0 162,0 244,0 26,0 58,-2 83,0 11,1 25,4 34,8 11,4 17,9 25,16 7,8 12,15 16,25 9,22 6,53 6,79 -22,0 -147,-1 -158,-1l-3 0 -196 0c0,26 0,36 0,61 0,4 0,9 -1,14z"/>
                <path class="fil2"
                      d="M719 344l13 0c27,0 58,-2 84,0 11,1 25,4 34,8 11,4 17,9 24,16 8,8 12,15 17,25 8,22 6,53 6,79 -23,0 -147,-1 -159,-1l-2 0 -17 0 0 -127z"/>
                <path class="fil2"
                      d="M497 344l-13 0c-26,0 -58,-2 -84,0 -11,1 -25,4 -34,8 -10,4 -17,9 -24,16 -7,8 -12,15 -17,25 -8,22 -5,53 -5,78 22,0 147,0 158,0l2 0 17 0 0 -127z"/>
   </g>
            <path class="fil3"
                  d="M1480 726c-2,9 -3,19 -5,28 19,0 42,0 63,0 28,0 62,0 87,0 3,-9 5,-19 6,-28l-67 -2 21 -123c5,0 16,0 30,0 31,0 59,-3 88,-14 41,-16 85,-62 85,-123 0,-37 -17,-75 -61,-92 -29,-11 -51,-12 -90,-12 -34,0 -68,0 -95,1 -3,9 -4,19 -6,28l41 1 -56 331c0,2 -2,3 -3,3l-38 2zm142 -336c3,-1 13,-2 28,-2 64,0 90,33 90,79 0,42 -18,74 -51,91 -18,9 -42,13 -67,13 -16,0 -31,-1 -31,-6l31 -175z"/>
            <path class="fil3"
                  d="M1741 726c-2,9 -4,19 -5,28 16,0 34,0 52,0 28,0 56,0 80,0 1,-9 3,-19 4,-28l-53 -2c13,-28 31,-64 46,-92l146 -1c2,0 4,0 4,3 4,26 11,60 15,86 0,2 -1,4 -2,4l-48 2c-2,9 -4,19 -5,28 23,0 51,0 78,0 18,0 39,0 55,0 2,-9 4,-19 5,-28l-36 -2c-21,-110 -47,-260 -68,-370 -9,0 -26,1 -33,1 -58,108 -138,258 -198,366 -2,2 -4,3 -5,3l-32 2zm238 -305c10,56 21,125 31,181l-127 0c-2,0 -3,-1 -2,-3 30,-55 65,-123 94,-178l4 0z"/>
            <path class="fil3"
                  d="M2483 612c2,-9 4,-19 5,-28 -17,0 -36,0 -56,0 -30,0 -61,0 -86,0 -2,9 -4,18 -5,28l63 2 -16 103c-1,6 -22,14 -56,14 -42,0 -78,-10 -108,-49 -20,-25 -24,-59 -24,-88 0,-75 34,-139 74,-171 34,-29 73,-38 104,-38 28,0 48,6 60,16 4,3 5,7 5,11l-3 61c10,0 21,-1 31,-1 4,-33 9,-66 12,-98 -17,-13 -48,-20 -85,-20 -45,0 -90,6 -141,40 -58,38 -107,118 -107,205 0,42 10,81 43,115 27,27 69,46 124,46 48,0 89,-8 110,-21l22 -123c0,-2 2,-2 3,-2l31 -2z"/>
  </g>
 </g>
</svg>
