<?xml version="1.0" encoding="UTF-8"?>
<!DOCTYPE svg PUBLIC "-//W3C//DTD SVG 1.1//EN" "http://www.w3.org/Graphics/SVG/1.1/DTD/svg11.dtd">
<!-- Creator: CorelDRAW X8 -->
<svg xmlns="http://www.w3.org/2000/svg" xml:space="preserve" width="36.2107mm" height="8.4898mm" version="1.1"
     style="shape-rendering:geometricPrecision; text-rendering:geometricPrecision; image-rendering:optimizeQuality; fill-rule:evenodd; clip-rule:evenodd"
     viewBox="0 0 2781 652"
>
 <defs>
  <style type="text/css">
   <![CDATA[
    .fil3 {fill:#1A1A1A}
    .fil1 {fill:#00A3E0}
    .fil2 {fill:#1A1A1A;fill-rule:nonzero}
    .fil0 {fill:#00A3E0;fill-rule:nonzero}
   ]]>
  </style>
 </defs>
    <g id="Camada_x0020_1">
  <metadata id="CorelCorpID_0Corel-Layer"/>
        <g id="_663895136">
   <path class="fil0"
         d="M2722 366l22 -1c3,-29 7,-58 10,-87 -15,-11 -42,-18 -74,-18 -41,-1 -80,3 -126,32 -2,2 -5,4 -7,6 38,-21 73,-24 109,-24 32,1 59,8 74,19 -2,24 -5,48 -8,73z"/>
            <path class="fil1"
                  d="M2758 341l13 0c4,-27 7,-54 10,-81 -18,-12 -49,-16 -70,-16 -28,-1 -53,2 -76,10 16,-3 33,-4 52,-4 24,1 57,5 77,20l2 1 0 3c-3,22 -5,45 -8,67z"/>
            <path class="fil2"
                  d="M1143 617c-2,8 -3,16 -5,25 15,0 31,-1 46,-1 25,0 50,0 71,0 1,-8 2,-16 4,-24l-48 -2c13,-25 28,-56 42,-81l128 -1c3,0 4,0 4,3 4,22 9,52 13,76 0,1 -1,3 -2,3l-42 2c-1,8 -3,16 -4,25 20,0 44,-1 68,-1 16,0 35,0 49,0 2,-8 4,-16 5,-24l-32 -2c-19,-97 -42,-229 -61,-326 -7,0 -23,0 -28,1 -52,94 -123,227 -175,322 -2,2 -4,3 -5,3l-28 2zm210 -269c9,49 19,110 27,160l-112 -1c-2,0 -2,-1 -1,-2 26,-49 57,-108 82,-157l4 0zm445 169c2,-9 4,-17 5,-26 -15,0 -32,0 -50,0 -26,0 -54,0 -76,0 -2,8 -3,17 -4,25l55 2 -14 91c-1,5 -19,13 -49,13 -37,0 -69,-9 -95,-44 -18,-22 -22,-52 -22,-77 0,-66 31,-123 65,-152 30,-25 65,-33 92,-33 25,0 43,5 54,14 3,3 4,6 4,10l-3 54c9,-1 19,-1 28,-2 3,-29 7,-57 10,-86 -15,-11 -42,-17 -74,-17 -41,0 -80,5 -126,35 -51,34 -94,104 -94,180 0,38 9,73 38,103 24,23 61,40 109,40 43,0 79,-7 98,-19l19 -108c0,-2 2,-2 3,-2l27 -1zm28 100c-2,8 -4,17 -5,25 17,-1 37,-1 55,-1 26,0 55,0 78,0 2,-7 4,-16 5,-24l-60 -2 19 -109c5,0 15,1 27,1 27,0 52,-3 77,-13 37,-14 75,-55 75,-109 0,-32 -15,-66 -53,-81 -26,-10 -45,-11 -80,-11 -30,0 -60,1 -84,1 -2,9 -3,17 -5,25l36 1 -50 292c0,2 -1,3 -2,4l-33 1zm125 -297c2,-1 11,-1 24,-1 57,0 81,29 81,69 0,37 -17,66 -46,80 -16,8 -37,12 -59,12 -14,0 -28,-1 -28,-5l28 -155z"/>
            <path class="fil2"
                  d="M2057 617c-2,8 -3,16 -5,25 14,0 30,-1 46,-1 25,0 50,0 70,0 2,-8 3,-16 5,-24l-48 -2c12,-25 28,-56 41,-81l129 -1c2,0 3,0 3,3 5,22 10,52 14,76 0,1 -1,3 -2,3l-42 2c-2,8 -3,16 -4,25 20,0 44,-1 68,-1 16,0 35,0 49,0 2,-8 3,-16 5,-24l-33 -2c-18,-97 -41,-229 -60,-326 -7,0 -23,0 -28,1 -52,94 -123,227 -176,322 -1,2 -3,3 -4,3l-28 2zm210 -269c8,49 19,110 27,160l-112 -1c-2,0 -2,-1 -1,-2 25,-49 56,-108 82,-157l4 0z"/>
            <path class="fil2"
                  d="M2712 517c2,-9 3,-17 4,-26 -15,0 -32,0 -49,0 -26,0 -54,0 -76,0 -2,8 -3,17 -4,25l55 2 -14 91c-1,5 -19,13 -49,13 -37,0 -69,-9 -96,-44 -17,-22 -21,-52 -21,-77 0,-66 30,-123 65,-152 30,-25 65,-33 92,-33 25,0 42,5 54,14 3,3 3,6 3,10l-2 54c9,-1 18,-1 27,-2 4,-29 8,-57 11,-86 -15,-11 -42,-17 -75,-17 -40,0 -79,5 -125,35 -51,34 -94,104 -94,180 0,38 9,73 38,103 24,23 61,40 109,40 42,0 79,-7 98,-19l19 -108c0,-2 2,-2 3,-2l27 -1z"/>
            <g>
    <path class="fil1"
          d="M732 651c62,0 112,0 120,0 87,0 159,6 229,-56 24,-21 41,-51 53,-90 7,-21 7,-40 10,-61 0,-3 0,-10 0,-20l1 0c0,-12 0,-25 0,-38l0 -4 0 0c-1,-48 -1,-98 -1,-111 -80,0 -160,0 -241,0l-1 0c-20,0 -42,0 -63,0 -18,1 -34,7 -47,19 -13,11 -18,26 -18,49 0,22 0,11 0,33 16,0 101,0 121,0l139 0 0 10 0 0 0 26c0,51 -3,103 -57,123 -28,11 -47,9 -81,9l-164 0 0 1 -31 0c-53,0 -101,6 -138,-29 -32,-29 -26,-101 -26,-141l0 -2 -1 0 0 -135c0,-10 0,-20 1,-29 0,-2 0,-4 1,-5 1,-13 3,-26 8,-39 2,-5 5,-8 6,-12 -32,-18 -71,-15 -113,-15 -6,14 -8,20 -11,51 0,2 0,5 0,9 -4,37 -3,126 -2,175l0 0c0,32 0,64 2,96 4,41 20,80 42,109 20,27 51,48 88,62 19,7 38,11 61,14 9,1 61,2 113,1l0 0z"/>
                <path class="fil1"
                      d="M618 2c44,21 86,62 104,109l141 0 0 0 73 0 0 0c26,2 51,9 72,29 9,8 15,20 19,33l114 0c-6,-36 -21,-69 -40,-95 -21,-27 -51,-49 -88,-62 -4,-2 -7,-3 -11,-4l0 0c-15,-5 -31,-8 -50,-10 -3,-1 -8,-1 -15,-1l-1 0 -22 0 0 -1 -231 0c-22,0 -44,-1 -65,2z"/>
   </g>
            <g>
    <path class="fil3"
          d="M719 392c0,-19 0,-39 0,-58 -1,-49 1,-99 -3,-147 -3,-41 -20,-80 -42,-109 -20,-27 -51,-49 -88,-63 -19,-7 -38,-10 -61,-13 -18,-3 -197,-1 -224,-1l-90 0 -1 0c-8,0 -13,0 -15,1 -19,2 -35,5 -51,10l0 0c-3,1 -7,2 -10,3 -37,14 -68,36 -88,63 -20,26 -35,59 -40,95l113 0c4,-13 10,-25 19,-34 21,-19 46,-26 73,-28l0 0 233 0c52,0 100,-6 138,28 31,30 26,101 26,142l0 111 0 0 0 25c0,10 -1,20 -1,30 0,1 -1,3 -1,5 -1,13 -3,26 -8,38 -2,6 -5,9 -6,13 32,18 71,15 113,15 6,-15 7,-21 11,-51 0,-3 0,-6 0,-9 2,-16 2,-40 2,-66l1 0z"/>
                <path class="fil3"
                      d="M110 431c2,16 2,31 7,47 3,10 11,26 17,32 18,18 38,25 67,30 13,2 137,0 182,0l0 0 38 0c18,47 61,89 106,110 -21,3 -44,2 -66,2l-77 0 0 0c-22,0 -47,-1 -69,-1 -47,0 -109,3 -152,-6 -19,-4 -42,-12 -58,-21 -57,-31 -86,-74 -99,-138 -4,-15 -5,-29 -5,-43l0 0 0 0c0,-10 -1,-19 -1,-30l0 -12 0 0 0 -73 0 0c0,-1 0,-2 1,-3 0,-1 0,-2 0,-3 1,-2 1,-3 1,-4 1,-1 1,-2 1,-3 0,-1 1,-2 1,-3 1,-1 1,-2 1,-2 1,-1 1,-2 2,-3 0,0 0,-1 1,-2 0,0 0,-1 1,-2 0,-1 1,-1 1,-2 1,-1 2,-2 2,-3 1,-1 1,-2 2,-2 0,-1 1,-1 1,-2 1,0 1,-1 2,-1 0,-1 1,-1 1,-2 1,0 1,-1 2,-1 0,-1 0,-1 1,-2 1,0 2,-1 2,-2 1,0 1,0 2,-1 0,0 1,-1 1,-1 1,0 2,-1 2,-1 1,-1 1,-1 2,-1 0,-1 1,-1 2,-1 0,-1 1,-1 1,-1 1,-1 2,-1 3,-2 0,0 1,0 2,-1 0,0 1,0 2,0 0,-1 1,-1 2,-1 0,-1 1,-1 1,-1 1,0 2,0 3,-1 1,0 2,0 3,-1 2,0 3,0 4,0 1,-1 2,-1 3,-1 1,0 2,0 3,0 1,0 3,0 4,0 1,-1 1,-1 2,-1l0 0 0 0 0 0 0 0 0 0 1 0 0 0 0 0 0 0 0 0 0 0 0 0 0 0 0 0 0 0 0 0 0 0 0 0 0 0 0 0 0 0 0 0 0 0 0 0 0 0 0 0 0 0 0 0 0 0 0 0 1 0 0 0 0 0 0 0 0 0 0 0 0 0 0 0 0 0 0 0 0 0 0 0 0 0 0 0 0 0 0 0 0 0 0 0 0 0 0 0 0 0 0 0 1 0 0 0 0 0 0 0 0 0 0 0 0 0 0 0 0 0 0 0 0 0 0 0 0 0 0 0 0 0 0 0 1 0 0 0 0 0 0 0 0 0 0 0 0 0 0 0 0 0 0 0 0 0 0 0 0 0 1 0 0 0 0 0 0 0 0 0 0 0 0 0c64,0 128,0 193,0 20,0 45,-1 66,1 8,0 19,3 27,6 8,3 13,7 19,13 5,6 9,11 13,19 6,17 4,42 4,63 -17,-1 -116,-1 -125,-1l-2 0 -155 0c0,20 0,28 0,48 0,3 0,7 0,11z"/>
                <path class="fil3"
                      d="M568 271l10 0c21,0 46,-1 66,1 9,0 20,3 27,6 8,3 13,7 19,13 6,6 10,11 13,19 7,17 5,42 5,63 -18,-1 -116,-1 -125,-1l-2 0 -13 0 0 -101z"/>
                <path class="fil3"
                      d="M392 271l-10 0c-21,0 -46,-1 -66,1 -9,0 -20,3 -27,6 -8,3 -13,7 -19,13 -6,6 -10,11 -13,19 -7,17 -5,42 -5,62 18,0 116,0 125,0l2 0 13 0 0 -101z"/>
   </g>
  </g>
 </g>
</svg>
