<?xml version="1.0" encoding="UTF-8"?>
<!DOCTYPE svg PUBLIC "-//W3C//DTD SVG 1.1//EN" "http://www.w3.org/Graphics/SVG/1.1/DTD/svg11.dtd">
<!-- Creator: CorelDRAW X8 -->
<svg xmlns="http://www.w3.org/2000/svg" xml:space="preserve" width="17.2992mm" height="4.2431mm" version="1.1"
     style="shape-rendering:geometricPrecision; text-rendering:geometricPrecision; image-rendering:optimizeQuality; fill-rule:evenodd; clip-rule:evenodd"
     viewBox="0 0 1177 289"
>
 <defs>
  <style type="text/css">
   <![CDATA[
    .fil1 {fill:#00A3E0}
    .fil2 {fill:#1A1A1A;fill-rule:nonzero}
    .fil0 {fill:#00A3E0;fill-rule:nonzero}
   ]]>
  </style>
 </defs>
    <g id="Camada_x0020_1">
  <metadata id="CorelCorpID_0Corel-Layer"/>
        <path class="fil0"
              d="M1134 87l16 0c3,-21 6,-42 8,-62 -11,-8 -30,-13 -54,-14 -29,0 -57,3 -89,24 -2,1 -4,2 -6,4 28,-15 53,-18 78,-17 23,0 43,5 54,13 -2,18 -4,35 -7,52z"/>
        <path class="fil1"
              d="M1160 70l10 -1c2,-19 5,-38 7,-57 -13,-9 -35,-12 -50,-12 -21,0 -38,1 -55,7 12,-2 24,-3 37,-2 18,0 42,3 56,13l1 2 0 1c-2,16 -4,33 -6,49z"/>
        <path class="fil2"
              d="M3 267c-1,6 -2,12 -3,18 10,0 22,0 33,0 18,0 36,0 50,0 2,-6 2,-12 4,-18l-35 -1c9,-18 20,-40 30,-58l92 -1c2,0 3,1 3,2 3,16 6,38 10,55 0,1 -1,2 -2,2l-30 1c-1,6 -3,12 -3,18 14,0 31,0 49,0 11,0 25,0 35,0 1,-6 2,-12 3,-18l-23 -1c-13,-70 -30,-164 -43,-234 -6,0 -17,0 -21,1 -37,68 -87,163 -125,231 -1,1 -2,2 -3,2l-21 1zm151 -192c6,35 13,79 19,114l-80 0c-1,0 -1,-1 -1,-2 19,-35 41,-78 59,-112l3 0zm319 120c1,-6 2,-12 3,-18 -11,0 -23,0 -35,0 -19,0 -39,0 -55,0 -1,6 -2,12 -3,18l40 1 -11 66c0,3 -13,9 -34,9 -27,0 -50,-7 -69,-31 -13,-17 -15,-38 -15,-56 0,-47 22,-88 46,-109 22,-18 47,-23 66,-23 18,0 31,3 39,10 2,2 2,4 2,7l-1 39c6,-1 13,-1 19,-2 3,-20 6,-41 8,-62 -11,-7 -30,-12 -54,-12 -28,0 -57,4 -89,25 -37,25 -68,75 -68,130 0,27 6,51 28,73 16,17 43,29 78,29 30,0 56,-5 70,-14l14 -77c0,-1 1,-2 1,-2l20 -1zm19 72c-1,6 -2,12 -3,18 12,0 27,0 40,0 18,0 39,0 55,0 2,-6 3,-12 4,-18l-43 -1 14 -78c3,0 10,0 19,0 19,0 37,-2 55,-9 26,-10 54,-39 54,-78 0,-23 -11,-47 -38,-58 -19,-7 -32,-7 -57,-7 -22,0 -44,0 -60,0 -2,6 -3,12 -4,18l26 1 -36 209c0,2 -1,2 -2,2l-24 1zm90 -212c2,-1 9,-1 18,-1 40,0 57,21 57,49 0,27 -12,47 -32,58 -12,6 -27,8 -42,8 -11,0 -20,-1 -20,-3l19 -111z"/>
        <path class="fil2"
              d="M658 267c-1,6 -2,12 -3,18 10,0 21,0 33,0 18,0 35,0 50,0 1,-6 2,-12 3,-18l-34 -1c9,-18 20,-40 30,-58l92 -1c1,0 2,1 2,2 3,16 7,38 10,55 0,1 -1,2 -1,2l-31 1c-1,6 -2,12 -3,18 15,0 32,0 49,0 12,0 25,0 35,0 2,-6 3,-12 4,-18l-23 -1c-13,-70 -30,-164 -44,-234 -5,0 -16,0 -20,1 -37,68 -88,163 -126,231 -1,1 -2,2 -3,2l-20 1zm151 -192c6,35 13,79 19,114l-80 0c-1,0 -2,-1 -1,-2 18,-35 41,-78 59,-112l3 0z"/>
        <path class="fil2"
              d="M1127 195c2,-6 3,-12 4,-18 -11,0 -23,0 -36,0 -19,0 -39,0 -54,0 -1,6 -3,12 -3,18l39 1 -10 66c0,3 -13,9 -35,9 -27,0 -50,-7 -68,-31 -13,-17 -16,-38 -16,-56 0,-47 22,-88 47,-109 22,-18 46,-23 66,-23 18,0 30,3 38,10 3,2 3,4 3,7l-2 39c7,-1 13,-1 20,-2 3,-20 5,-41 8,-62 -11,-7 -31,-12 -54,-12 -29,0 -57,4 -90,25 -36,25 -67,75 -67,130 0,27 6,51 27,73 17,17 44,29 78,29 31,0 57,-5 70,-14l14 -77c0,-1 1,-2 2,-2l19 -1z"/>
 </g>
</svg>
