<?xml version="1.0" encoding="UTF-8"?>
<!DOCTYPE svg PUBLIC "-//W3C//DTD SVG 1.1//EN" "http://www.w3.org/Graphics/SVG/1.1/DTD/svg11.dtd">
<!-- Creator: CorelDRAW X8 -->
<svg xmlns="http://www.w3.org/2000/svg" xml:space="preserve" width="21.1547mm" height="12.0515mm" version="1.1"
     style="shape-rendering:geometricPrecision; text-rendering:geometricPrecision; image-rendering:optimizeQuality; fill-rule:evenodd; clip-rule:evenodd"
     viewBox="0 0 3943 2246"
>
 <defs>
  <style type="text/css">
   <![CDATA[
    .fil0 {fill:#00A3E0}
    .fil1 {fill:#1A1A1A}
   ]]>
  </style>
 </defs>
    <g id="Camada_x0020_1">
  <metadata id="CorelCorpID_0Corel-Layer"/>
        <g id="_675946424">
   <g>
    <path class="fil0"
          d="M2522 2245c215,-1 385,-1 412,-1 303,0 550,19 789,-194 83,-73 144,-177 184,-309 22,-74 25,-140 33,-212 1,-10 2,-35 2,-70l1 0c0,-40 0,-84 0,-129l0 -13 0 0c0,-167 -1,-337 -1,-382 -277,0 -553,0 -830,0l-3 0c-72,0 -146,-2 -217,0 -65,2 -119,23 -164,63 -44,39 -60,91 -60,169 0,76 0,39 0,115 55,0 345,0 415,0l480 0 0 35 0 0 0 90c0,176 -12,355 -196,423 -99,37 -163,32 -280,32l-565 0 0 2 -108 0c-180,0 -346,20 -476,-100 -108,-101 -88,-348 -88,-486l0 -7 -2 0 0 -464c0,-35 0,-68 3,-101 0,-6 1,-12 1,-18 4,-45 12,-89 29,-133 7,-19 16,-29 22,-42 -113,-63 -247,-52 -391,-51 -20,49 -26,70 -36,174 -1,9 -2,20 -3,31 -11,130 -7,436 -6,604l0 0c-1,111 -1,222 9,330 12,142 69,275 144,375 70,94 176,168 303,215 67,26 131,37 211,48 31,5 209,6 388,6l0 0z"/>
       <path class="fil0"
             d="M2129 6c153,72 298,215 358,375l486 0 0 0 250 0 0 0c93,7 178,32 251,100 31,29 51,69 65,116l392 0c-20,-125 -72,-239 -139,-328 -70,-94 -176,-168 -303,-215 -12,-5 -24,-9 -36,-13l0 0c-54,-16 -109,-26 -175,-35 -8,-2 -26,-3 -51,-3l-4 -1 -75 0 0 0 -796 0c-73,0 -151,-6 -223,4z"/>
   </g>
            <g>
    <path class="fil1"
          d="M2476 1351c0,-67 0,-133 0,-200 -1,-168 6,-342 -9,-507 -12,-143 -69,-276 -144,-376 -70,-93 -176,-167 -303,-215 -66,-25 -131,-36 -211,-48 -61,-9 -681,-3 -773,-3l-310 0 -3 0c-26,1 -44,2 -52,3 -65,10 -120,19 -175,36l0 0c-12,4 -24,8 -36,12 -127,48 -233,122 -303,215 -66,89 -119,204 -138,329l392 0c13,-47 34,-88 65,-116 73,-68 158,-93 250,-100l0 0 803 0c180,0 347,-21 476,100 108,101 89,347 89,486l-1 384 0 0 0 87c0,35 0,68 -3,101 0,6 -1,12 -1,18 -4,45 -12,89 -29,133 -8,18 -16,28 -22,42 113,63 247,52 391,51 20,-49 26,-71 36,-174 1,-10 2,-20 3,-32 4,-53 6,-136 7,-226l1 0z"/>
                <path class="fil1"
                      d="M379 1484c5,55 8,107 26,164 10,32 36,87 58,109 59,62 130,86 231,103 43,7 471,-1 625,1l0 0 133 0c61,162 207,307 362,380 -72,9 -151,4 -226,4l-266 0 0 0c-76,2 -162,-1 -236,-1 -162,0 -377,9 -525,-22 -67,-14 -145,-42 -198,-71 -197,-108 -296,-255 -343,-476 -11,-53 -15,-100 -17,-150l0 0 0 0c-1,-32 -1,-65 -3,-101l0 -41 0 0 0 -252 0 -2c1,-3 1,-7 2,-11 1,-3 1,-6 2,-10 1,-4 3,-9 4,-12 1,-4 2,-7 3,-10 1,-3 2,-7 4,-10 1,-3 2,-7 4,-10 1,-2 2,-5 3,-7 2,-3 3,-5 4,-7 1,-3 3,-5 4,-7 2,-3 3,-6 6,-9 2,-3 4,-6 6,-9 3,-3 4,-6 6,-8 2,-2 3,-3 4,-5 2,-2 4,-4 6,-6 1,-2 3,-3 4,-5 2,-1 4,-3 5,-5 2,-1 4,-3 6,-5 2,-2 5,-5 8,-7 2,-1 3,-2 4,-4 2,-1 3,-2 6,-4 2,-1 4,-3 7,-4 2,-2 3,-3 5,-4 2,-1 4,-2 6,-3 2,-2 4,-3 6,-4 3,-1 5,-3 7,-4 3,-1 5,-2 7,-3 2,-1 5,-2 7,-3 3,-1 5,-2 7,-3 3,-1 5,-2 7,-2 2,-1 4,-2 7,-3 4,-1 9,-2 13,-3 5,-1 9,-2 12,-3 4,0 7,-1 11,-2 4,0 7,0 11,-1 4,0 8,0 12,-1 3,0 6,0 9,0l0 0 0 0 0 0 0 0 1 0 0 0 0 0 0 0 0 0 0 0 0 0 0 0 1 0 0 0 0 0 0 0 0 0 0 0 0 0 1 0 0 0 0 0 0 0 0 0 0 0 0 0 1 0 0 0 0 0 0 0 0 0 0 0 0 0 1 0 0 0 0 0 0 0 0 0 0 0 0 0 1 0 0 0 0 0 0 0 0 0 0 0 1 0 0 0 0 0 0 0 0 0 0 0 1 0 0 0 0 0 0 0 0 0 1 0 0 0 0 0 0 0 0 0 1 0 0 0 0 0 0 0 1 0 0 0 0 0 0 0 1 0 0 0 0 0 0 0 1 0 0 0 0 0 0 0 1 0 0 0 0 0 1 0 0 0 0 0 0 0 1 0 0 0 0 0c222,0 443,0 664,0 71,0 157,-4 227,1 30,2 68,11 93,21 29,11 46,25 65,44 21,22 34,40 46,68 22,58 15,145 15,214 -60,-1 -399,-1 -430,-1l-6 0 -535 0c0,69 0,96 0,165 0,11 0,23 -1,37z"/>
                <path class="fil1"
                      d="M1956 935l35 0c72,0 158,-4 228,1 29,2 67,11 93,21 28,11 45,25 65,44 20,22 33,40 46,68 22,58 15,145 15,214 -60,-1 -399,-1 -430,-1l-7 0 -45 0 0 -347z"/>
                <path class="fil1"
                      d="M1351 935l-35 0c-71,0 -157,-4 -227,1 -30,2 -68,11 -93,21 -29,11 -46,25 -65,44 -21,22 -34,40 -46,68 -22,58 -15,143 -15,213 60,-2 399,0 430,0l6 0 45 0 0 -347z"/>
   </g>
  </g>
 </g>
</svg>
