<?xml version="1.0" encoding="UTF-8"?>
<!DOCTYPE svg PUBLIC "-//W3C//DTD SVG 1.1//EN" "http://www.w3.org/Graphics/SVG/1.1/DTD/svg11.dtd">
<!-- Creator: CorelDRAW X8 -->
<svg xmlns="http://www.w3.org/2000/svg" xml:space="preserve" width="27.6228mm" height="21.1667mm" version="1.1"
     style="shape-rendering:geometricPrecision; text-rendering:geometricPrecision; image-rendering:optimizeQuality; fill-rule:evenodd; clip-rule:evenodd"
     viewBox="0 0 2810 2153"
>
 <defs>
  <style type="text/css">
   <![CDATA[
    .fil1 {fill:#00A3E0}
    .fil3 {fill:#1A1A1A}
    .fil0 {fill:#00A3E0;fill-rule:nonzero}
    .fil2 {fill:#1A1A1A;fill-rule:nonzero}
   ]]>
  </style>
 </defs>
    <g id="Camada_x0020_1">
  <metadata id="CorelCorpID_0Corel-Layer"/>
        <g id="_637842168">
   <path class="fil0"
         d="M2708 1672l38 -1c6,-50 13,-99 18,-148 -26,-19 -72,-31 -128,-32 -69,-1 -136,7 -214,56 -4,3 -9,6 -13,9 66,-35 126,-41 186,-40 56,1 102,13 128,32 -5,42 -10,83 -15,124z"/>
            <path class="fil1"
                  d="M2770 1630l23 -1c6,-45 12,-91 17,-137 -32,-21 -85,-27 -120,-28 -49,-1 -90,4 -131,17 29,-5 58,-7 90,-6 40,1 98,8 132,33l3 3 0 4c-5,38 -9,77 -14,115z"/>
            <path class="fil2"
                  d="M8 2102c-3,14 -5,28 -8,43 25,0 52,-1 79,-1 43,0 85,0 120,0 3,-14 5,-29 8,-42l-82 -3c21,-42 48,-96 71,-139l220 -2c4,0 5,1 5,5 8,39 17,90 24,130 0,3 -2,6 -3,6l-73 3c-2,13 -5,28 -7,43 35,0 76,-1 117,-1 28,0 60,0 83,0 4,-14 7,-29 8,-42l-54 -3c-31,-166 -72,-392 -104,-558 -12,0 -39,0 -48,1 -89,162 -209,390 -300,552 -3,3 -5,5 -7,5l-49 3zm360 -460c14,84 32,188 46,273l-192 -1c-3,0 -3,-1 -2,-4 44,-82 97,-185 141,-268l7 0zm760 288c4,-14 7,-28 8,-43 -25,0 -54,0 -84,0 -45,0 -93,0 -130,0 -3,14 -6,28 -8,43l95 2 -24 156c-1,9 -32,22 -84,22 -64,0 -118,-15 -163,-74 -30,-39 -37,-89 -37,-133 0,-113 52,-210 112,-259 51,-43 110,-57 157,-57 42,0 72,8 91,25 6,4 7,10 7,16l-4 93c16,-1 31,-2 47,-3 6,-49 13,-99 18,-148 -25,-18 -72,-29 -128,-29 -68,0 -136,9 -214,60 -88,58 -162,177 -162,309 0,64 16,123 66,175 40,40 104,68 187,68 72,0 135,-11 167,-32l33 -185c0,-3 3,-4 4,-4l46 -2zm48 172c-3,14 -6,28 -8,43 29,-1 64,-1 95,-1 43,0 94,0 132,0 4,-14 7,-29 8,-43l-101 -2 32 -186c8,0 25,1 46,1 46,0 88,-5 132,-22 62,-24 128,-94 128,-186 0,-56 -25,-113 -91,-139 -44,-16 -77,-18 -136,-18 -52,0 -104,1 -144,2 -4,13 -6,28 -9,42l62 2 -85 499c0,4 -2,5 -5,6l-56 2zm214 -507c4,-2 20,-3 42,-3 97,0 137,50 137,119 0,64 -28,112 -78,137 -27,13 -64,20 -100,20 -25,0 -48,-2 -48,-8l47 -265z"/>
            <path class="fil2"
                  d="M1571 2102c-4,14 -6,28 -8,43 24,0 52,-1 78,-1 43,0 85,0 121,0 3,-14 5,-29 7,-42l-81 -3c21,-42 48,-96 70,-139l221 -2c3,0 5,1 5,5 8,39 17,90 24,130 0,3 -2,6 -4,6l-72 3c-3,13 -5,28 -7,43 35,0 76,-1 117,-1 27,0 59,0 83,0 4,-14 6,-29 8,-42l-55 -3c-31,-166 -71,-392 -103,-558 -13,0 -39,0 -48,1 -89,162 -210,390 -300,552 -3,3 -6,5 -8,5l-48 3zm359 -460c15,84 32,188 47,273l-192 -1c-3,0 -4,-1 -2,-4 44,-82 97,-185 141,-268l6 0z"/>
            <path class="fil2"
                  d="M2691 1930c4,-14 6,-28 8,-43 -25,0 -55,0 -84,0 -46,0 -93,0 -131,0 -2,14 -5,28 -7,43l95 2 -25 156c-1,9 -32,22 -83,22 -64,0 -119,-15 -163,-74 -31,-39 -37,-89 -37,-133 0,-113 52,-210 112,-259 51,-43 110,-57 157,-57 42,0 72,8 91,25 6,4 7,10 7,16l-4 93c16,-1 31,-2 47,-3 6,-49 12,-99 18,-148 -26,-18 -72,-29 -128,-29 -69,0 -136,9 -214,60 -88,58 -162,177 -162,309 0,64 16,123 66,175 40,40 104,68 186,68 73,0 136,-11 168,-32l33 -185c0,-3 2,-4 4,-4l46 -2z"/>
            <g>
    <path class="fil1"
          d="M1711 1247c120,0 215,-1 230,-1 168,0 305,11 438,-107 46,-41 80,-99 102,-172 12,-41 14,-77 18,-118 1,-5 1,-19 2,-38l0 0c0,-23 0,-47 0,-72l0 -8 0 0c0,-92 -1,-187 -1,-211 -153,-1 -307,0 -461,0l-1 0c-40,-1 -81,-2 -121,0 -36,1 -66,12 -91,35 -24,21 -33,50 -33,93 0,42 0,22 0,64 30,0 192,0 230,0l267 0 0 19 0 0 0 50c0,98 -7,198 -109,235 -55,21 -90,18 -156,18l-314 0 0 1 -59 0c-100,0 -193,12 -265,-55 -60,-56 -49,-193 -49,-270l0 -4 -1 0 0 -258c0,-19 0,-38 2,-56 0,-3 0,-7 0,-10 3,-25 7,-49 17,-74 4,-10 9,-16 12,-23 -63,-35 -137,-29 -217,-29 -12,28 -15,40 -21,97 0,5 -1,11 -1,18 -6,72 -4,241 -4,335l0 0c0,62 0,124 5,183 7,79 39,153 81,209 38,52 97,93 168,119 37,14 73,20 117,27 17,2 116,3 215,3l0 0z"/>
                <path class="fil1"
                      d="M1493 3c85,40 166,120 199,208l270 0 0 1 139 0 0 0c52,4 99,17 139,55 17,16 29,39 36,65l218 0c-11,-70 -40,-133 -77,-183 -39,-52 -98,-93 -168,-119 -7,-3 -13,-5 -20,-7l0 0c-30,-9 -61,-15 -97,-20 -5,-1 -15,-1 -29,-1l-2 -1 -42 0 0 0 -442 0c-41,0 -84,-3 -124,2z"/>
   </g>
            <g>
    <path class="fil3"
          d="M1686 750c0,-37 0,-74 0,-110 0,-94 3,-191 -5,-282 -7,-80 -38,-153 -80,-209 -39,-52 -98,-93 -168,-119 -37,-14 -73,-21 -117,-27 -34,-5 -378,-2 -430,-2l-172 0 -2 0c-14,1 -24,1 -28,2 -37,5 -67,10 -98,20l0 0c-6,2 -13,4 -19,7 -71,26 -130,67 -169,119 -37,49 -66,113 -77,182l218 0c8,-26 19,-48 36,-64 41,-38 88,-51 139,-55l0 0 446 -1c100,0 193,-11 264,56 61,56 50,193 50,270l-1 213 0 0 1 49c0,19 -1,38 -2,56 -1,3 -1,6 -1,10 -2,25 -7,49 -16,74 -4,10 -9,16 -12,23 63,35 137,29 217,29 11,-28 14,-40 20,-97 1,-6 1,-11 2,-18 2,-29 3,-75 4,-126l0 0z"/>
                <path class="fil3"
                      d="M521 824c3,31 5,60 15,92 5,17 20,48 32,60 33,35 72,48 128,57 24,4 262,0 347,1l0 0 74 0c34,90 115,170 201,210 -40,6 -84,3 -125,3l-148 0 0 0c-42,1 -90,-1 -131,-1 -90,0 -209,5 -292,-12 -37,-8 -80,-23 -109,-39 -110,-60 -165,-142 -191,-264 -6,-30 -8,-56 -9,-84l0 0 0 0c-1,-18 -1,-36 -2,-56l0 -23 0 0 0 -140 0 -1c0,-2 1,-4 1,-6 0,-2 1,-4 1,-6 1,-2 1,-4 2,-6 1,-3 1,-4 2,-6 0,-2 1,-3 2,-5 1,-2 1,-4 2,-6 1,-1 2,-3 2,-4 1,-1 2,-2 2,-4 1,-1 2,-2 3,-4 0,-1 1,-3 3,-4 1,-2 2,-4 3,-6 2,-1 3,-3 3,-4 1,-1 2,-2 3,-3 1,-1 2,-2 3,-3 1,-1 2,-2 2,-3 1,-1 2,-2 3,-3 1,0 2,-1 3,-2 2,-2 3,-3 5,-4 1,-1 1,-2 2,-2 1,-1 2,-2 3,-3 1,0 3,-1 4,-2 1,-1 2,-1 3,-2 1,-1 2,-1 3,-2 1,-1 3,-1 4,-2 1,-1 2,-2 4,-2 1,-1 2,-1 4,-2 1,-1 2,-1 3,-2 2,0 3,-1 4,-1 2,-1 3,-1 4,-2 1,0 2,0 4,-1 2,-1 5,-1 7,-2 3,-1 5,-1 7,-1 2,-1 4,-1 6,-1 2,-1 4,-1 6,-1 2,0 5,0 7,0 1,0 3,0 5,0l0 0 0 0 0 0 0 0 0 0 0 0 0 0 0 0 0 0 0 0 0 0 1 0 0 0 0 0 0 0 0 0 0 0 0 0 0 0 0 0 0 0 0 0 0 0 1 0 0 0 0 0 0 0 0 0 0 0 0 0 0 0 0 0 0 0 0 0 0 0 0 0 1 0 0 0 0 0 0 0 0 0 0 0 0 0 0 0 0 0 0 0 0 0 0 0 1 0 0 0 0 0 0 0 0 0 0 0 0 0 0 0 0 0 0 0 1 0 0 0 0 0 0 0 0 0 0 0 0 0 0 0 1 0 0 0 0 0 0 0 0 0 0 0 0 0 1 0 0 0 0 0 0 0 0 0 0 0 1 0 0 0 0 0 0 0 0 0 0 0 1 0 0 0 0 0c123,0 246,0 368,0 40,0 88,-3 126,0 17,1 38,6 52,11 16,7 26,14 36,25 12,12 19,22 26,38 12,32 8,80 8,119 -33,-1 -221,-1 -239,-1l-3 0 -297 0c0,38 0,53 0,92 0,6 0,13 -1,20z"/>
                <path class="fil3"
                      d="M1397 520l20 0c40,0 87,-3 126,0 17,1 38,6 52,11 16,7 25,14 36,25 11,12 18,22 25,38 13,32 9,80 9,119 -33,-1 -222,-1 -239,-1l-4 0 -25 0 0 -192z"/>
                <path class="fil3"
                      d="M1061 520l-19 0c-40,0 -88,-3 -126,0 -17,1 -38,6 -52,11 -16,7 -26,14 -36,25 -12,12 -19,22 -26,38 -12,32 -8,79 -8,118 33,-1 222,0 239,0l3 0 25 0 0 -192z"/>
   </g>
  </g>
 </g>
</svg>
