<?xml version="1.0" encoding="UTF-8"?>
<!DOCTYPE svg PUBLIC "-//W3C//DTD SVG 1.1//EN" "http://www.w3.org/Graphics/SVG/1.1/DTD/svg11.dtd">
<!-- Creator: CorelDRAW X8 -->
<svg xmlns="http://www.w3.org/2000/svg" xml:space="preserve" width="5.7308mm" height="3.2975mm" version="1.1"
     style="shape-rendering:geometricPrecision; text-rendering:geometricPrecision; image-rendering:optimizeQuality; fill-rule:evenodd; clip-rule:evenodd"
     viewBox="0 0 17 10"
>
 <defs>
  <style type="text/css">
   <![CDATA[
    .str0 {stroke:#151C39;stroke-width:0.22082}
    .fil0 {fill:none}
   ]]>
  </style>
 </defs>
    <g id="Camada_x0020_1">
  <metadata id="CorelCorpID_0Corel-Layer"/>
        <g id="_734675424">
   <path class="fil0 str0"
         d="M11 9c0,0 1,0 1,0 2,0 3,1 4,0 0,-1 0,-1 0,-2 0,0 0,0 0,-1 0,0 0,0 0,0l0 0c0,0 0,0 0,0l0 0 0 0c0,-1 0,-2 0,-2 -1,0 -2,0 -3,0l0 0c0,0 -1,0 -1,0 0,0 0,0 -1,0 0,0 0,1 0,1 0,0 0,0 0,0 0,0 2,0 2,0l2 0 0 1 0 0 0 0c0,1 0,1 -1,2 0,0 -1,0 -1,0l-2 0 0 0 -1 0c-1,0 -1,0 -2,-1 0,0 0,-1 0,-2l0 0 0 0 0 -2c0,0 0,0 0,0 0,0 0,0 0,0 0,0 0,0 0,-1 0,0 0,0 0,0 0,0 -1,0 -2,0 0,0 0,0 0,1 0,0 0,0 0,0 0,0 0,2 0,2l0 0c0,1 0,1 0,2 0,0 1,1 1,1 0,1 1,1 1,1 0,0 1,0 1,0 0,0 1,0 2,0l0 0z"/>
            <path class="fil0 str0"
                  d="M9 0c1,0 1,1 1,2l2 0 0 0 2 0 0 0c0,0 0,0 1,0 0,0 0,0 0,1l1 0c0,-1 0,-1 0,-2 0,0 -1,0 -1,-1 0,0 0,0 -1,0l0 0c0,0 0,0 0,0 0,0 0,0 0,0l0 0 -1 0 0 0 -3 0c0,0 -1,0 -1,0z"/>
  </g>
        <path class="fil0 str0"
              d="M10 6c0,-1 0,-1 0,-1 0,-1 0,-2 0,-2 0,-1 0,-1 0,-2 -1,0 -1,0 -1,-1 -1,0 -1,0 -1,0 -1,0 -3,0 -4,0l-1 0 0 0c0,0 0,0 0,0 0,0 -1,0 -1,0l0 0c0,0 0,0 0,0 -1,1 -1,1 -1,1 -1,1 -1,1 -1,2l2 0c0,-1 0,-1 0,-1 0,0 1,0 1,0l0 0 3 0c1,0 2,0 2,0 1,0 1,1 1,2 0,0 0,0 -1,0l0 0 0 1 0 0 0 0 1 0 0 1 0 0 0 0c0,0 0,0 0,1 0,0 0,0 0,0 0,0 0,0 0,0 0,0 0,0 0,0 0,1 1,1 1,1 0,-1 0,-1 0,-1 0,0 0,0 0,0 0,-1 0,-1 0,-1l0 0z"/>
        <path class="fil0 str0"
              d="M2 6c0,1 0,1 0,1 0,0 0,0 0,0 0,1 1,1 1,1 0,0 2,0 3,0l0 0 0 0c0,1 1,1 2,1 -1,0 -1,0 -1,0l-1 0 0 0c-1,0 -1,0 -1,0 -1,0 -2,0 -3,0 0,0 0,0 0,0 -1,0 -2,-1 -2,-2 0,0 0,0 0,-1l0 0 0 0c0,0 0,0 0,0l0 0 0 0 0 -1 0 0c0,0 0,0 0,0 0,0 0,0 0,0 0,0 0,0 0,0 0,0 0,0 0,0 0,0 0,0 0,0 0,0 0,0 0,0 0,0 0,0 0,0 0,-1 0,-1 0,-1 0,0 0,0 0,0 0,0 0,0 0,0 0,0 0,0 0,0 0,0 0,0 0,0 0,0 0,0 0,0 0,0 0,0 0,0 0,0 0,0 0,0 0,0 0,0 0,0 0,0 0,0 0,0 0,0 0,0 0,0 0,0 0,0 0,0 0,0 0,0 0,0 0,0 1,0 1,0 0,0 0,0 0,0 0,0 0,0 0,0 0,0 0,0 0,0 0,0 0,0 0,0 0,0 0,0 0,0 0,0 0,0 0,0 0,0 0,0 0,0 0,0 0,0 0,0 0,0 0,0 0,0 0,0 0,0 0,0 0,0 0,0 0,0 0,0 0,0 0,0 0,0 0,0 0,0 0,0 0,0 0,0 0,0 0,0 0,0l0 0 0 0 0 0 0 0 0 0 0 0 0 0 0 0 0 0 0 0 0 0 0 0 0 0 0 0 0 0 0 0 0 0 0 0 0 0 0 0 0 0 0 0 0 0 0 0 0 0 0 0 0 0 0 0 0 0 0 0 0 0 0 0 0 0 0 0 0 0 0 0 0 0 0 0 0 0 0 0 0 0 0 0 0 0 0 0 0 0 0 0 0 0 0 0 0 0 0 0 0 0 0 0 0 0 0 0 0 0 0 0 0 0 0 0 0 0 0 0 0 0 0 0 0 0 0 0 0 0 0 0 0 0 0 0 0 0 0 0 0 0 0 0 0 0 0 0 0 0 0 0 0 0 0 0 0 0 0 0 0 0 0 0 0 0 0 0 0 0 0 0 0 0 0 0c1,0 2,0 3,0 0,0 0,0 1,0 0,0 0,0 1,0l0 0 0 1c0,0 0,0 0,0l0 0 0 0 0 0 0 0c-1,0 -2,0 -2,0l0 0 0 0 -2 0c0,1 0,1 0,1 0,0 0,0 0,0z"/>
 </g>
</svg>
