<?xml version="1.0" encoding="UTF-8"?>
<!DOCTYPE svg PUBLIC "-//W3C//DTD SVG 1.1//EN" "http://www.w3.org/Graphics/SVG/1.1/DTD/svg11.dtd">
<!-- Creator: CorelDRAW X8 -->
<svg xmlns="http://www.w3.org/2000/svg" xml:space="preserve" width="10.7283mm" height="3.4528mm" version="1.1"
     style="shape-rendering:geometricPrecision; text-rendering:geometricPrecision; image-rendering:optimizeQuality; fill-rule:evenodd; clip-rule:evenodd"
     viewBox="0 0 55 18"
>
 <defs>
  <style type="text/css">
   <![CDATA[
    .fil1 {fill:#00A3E0;fill-opacity:0.250980}
    .fil2 {fill:#151C39;fill-opacity:0.250980}
    .fil0 {fill:#00A3E0;fill-rule:nonzero;fill-opacity:0.250980}
    .fil3 {fill:#151C39;fill-rule:nonzero;fill-opacity:0.250980}
   ]]>
  </style>
 </defs>
    <g id="Camada_x0020_1">
  <metadata id="CorelCorpID_0Corel-Layer"/>
        <path class="fil0"
              d="M54 10l0 0c0,-1 0,-2 0,-3 0,0 -1,0 -1,0 -2,0 -3,0 -4,1 0,0 0,0 0,0 1,-1 2,-1 3,-1 1,0 1,0 2,1 0,0 0,1 0,2z"/>
        <path class="fil1"
              d="M55 9l0 0c0,-1 0,-1 0,-2 0,0 -1,-1 -2,-1 0,0 -1,0 -2,1 1,0 1,0 2,0 0,0 1,0 2,0l0 0 0 0c0,1 0,1 0,2z"/>
        <g id="_734687856">
   <path class="fil1"
         d="M20 18c2,0 3,0 3,0 3,0 5,0 6,-2 1,0 2,-1 2,-2 0,-1 0,-1 0,-2 0,0 0,0 0,0l0 0c0,-1 0,-1 0,-1l0 -1 0 0c0,-1 0,-2 0,-3 -2,0 -4,0 -6,0l0 0c-1,0 -2,0 -2,0 -1,0 -1,1 -1,1 -1,0 -1,1 -1,1 0,1 0,1 0,1 1,0 3,0 3,0l4 0 0 0 0 0 0 1c0,2 0,3 -1,3 -1,1 -2,1 -3,1l-4 0 0 0 -1 0c-1,0 -3,0 -4,-1 -1,-1 0,-3 0,-4l0 0 0 0 0 -4c0,0 0,0 0,0 0,0 0,-1 0,-1 0,0 0,0 0,-1 0,0 0,0 0,0 -1,0 -2,0 -3,0 0,0 0,0 0,1 0,0 0,0 0,0 0,1 0,4 0,5l0 0c0,1 0,2 0,3 0,1 0,2 1,3 0,0 1,1 2,1 1,1 1,1 2,1 0,0 2,0 3,0l0 0z"/>
            <path class="fil1"
                  d="M17 0c1,1 2,2 3,3l3 0 0 0 2 0 0 0c1,0 2,0 2,1 1,0 1,0 1,1l3 0c0,-1 -1,-2 -1,-3 -1,-1 -1,-1 -2,-2 -1,0 -1,0 -1,0l0 0c0,0 -1,0 -1,0 0,0 0,0 -1,0l0 0 0 0 0 0 -6 0c-1,0 -2,0 -2,0z"/>
  </g>
        <path class="fil2"
              d="M20 11c0,-1 0,-1 0,-2 0,-1 0,-3 -1,-4 0,-1 0,-2 -1,-3 0,-1 -1,-1 -2,-2 -1,0 -1,0 -2,0 0,0 -5,0 -6,0l-2 0 0 0c0,0 -1,0 -1,0 0,0 -1,0 -1,0l0 0c0,0 0,0 0,0 -1,1 -2,1 -3,2 0,1 -1,2 -1,3l3 0c0,-1 1,-1 1,-1 0,-1 1,-1 2,-1l0 0 6 0c2,0 3,0 4,1 1,1 1,2 1,3 -1,0 -1,0 -1,0l-1 0 0 3 1 0 0 0 1 0 0 1 0 0 0 0c0,1 0,1 0,1 0,0 0,0 -1,0 0,1 0,1 0,1 0,0 0,1 0,1 1,0 2,0 3,0 0,0 0,0 0,-1 0,0 0,0 0,-1 1,0 1,-1 1,-1l0 0z"/>
        <path class="fil2"
              d="M3 12c0,0 0,1 0,1 0,0 0,1 1,1 0,0 1,1 1,1 1,0 4,0 5,0l0 0 1 0c1,1 2,2 3,3 0,0 -1,0 -1,0l-3 0 0 0c0,0 -1,0 -1,0 -2,0 -3,0 -5,0 0,-1 -1,-1 -1,-1 -2,-1 -2,-2 -3,-4 0,0 0,-1 0,-1l0 0 0 0c0,0 0,0 0,-1l0 0 0 0 0 -2 0 0c0,0 0,0 0,0 0,0 0,0 0,0 0,0 0,0 0,0 0,0 0,0 0,0 0,0 0,0 0,-1 0,0 0,0 0,0 0,0 0,0 0,0 0,0 0,0 0,0 0,0 0,0 0,0 0,0 0,0 0,0 0,0 0,0 0,0 0,0 0,0 0,0 0,0 0,0 0,0 0,0 0,0 0,0 0,0 0,0 0,0 1,0 1,0 1,0 0,0 0,0 0,0 0,0 0,0 0,0 0,0 0,0 0,0 0,0 0,0 0,0 0,0 0,0 0,0 0,0 0,0 0,0 0,0 0,0 0,0 0,0 0,0 0,0 0,0 0,0 0,0 0,0 0,0 0,0 0,0 0,0 0,0 0,0 0,0 0,0 0,-1 0,-1 0,-1 0,0 0,0 0,0 0,0 0,0 0,0 0,0 0,0 0,0 0,0 0,0 1,0 0,0 0,0 0,0 0,0 0,0 0,0 0,0 0,0 0,0l0 0 0 0 0 0 0 0 0 0 0 0 0 0 0 0 0 0 0 0 0 0 0 0 0 0 0 0 0 0 0 0 0 0 0 0 0 0 0 0 0 0 0 0 0 0 0 0 0 0 0 0 0 0 0 0 0 0 0 0 0 0 0 0 0 0 0 0 0 0 0 0 0 0 0 0 0 0 0 0 0 0 0 0 0 0 0 0 0 0 0 0 0 0 0 0 0 0 0 0 0 0 0 0 0 0 0 0 0 0 0 0 0 0 0 0 0 0 0 0 0 0 0 0 0 0 0 0 0 0 0 0 0 0 0 0 0 0 0 0 0 0 0 0 0 0 0 0 0 0 0 0 0 0 0 0 0 0 0 0 0 0 0 0 0 0 0 0 0 0 0 0 0 0 0 0c2,0 3,0 5,0 1,0 1,0 2,0 0,0 1,0 1,0l1 0 0 2c0,0 0,1 0,1l0 0 0 0 0 0c-1,0 -3,0 -4,0l0 0 0 0 -4 0c0,1 0,1 0,1 0,1 0,1 0,1z"/>
        <path class="fil3"
              d="M32 16c0,0 0,0 0,0 0,0 1,0 1,0 1,0 1,0 2,0 0,0 0,0 0,0l-1 0 0 -3c0,0 0,0 1,0 0,0 1,0 2,0 0,-1 1,-2 1,-3 0,-1 0,-2 -1,-2 -1,0 -1,0 -2,0 -1,0 -1,0 -2,0 0,0 0,0 0,0l1 0 -1 7c0,1 0,1 0,1l-1 0zm3 -8c0,0 0,0 0,0 2,0 2,1 2,2 0,1 0,2 -1,2 0,0 -1,0 -1,0 -1,0 -1,0 -1,0l1 -4z"/>
        <path class="fil3"
              d="M37 16c0,0 0,0 0,0 1,0 1,0 1,0 1,0 2,0 2,0 0,0 0,0 0,0l-1 0c0,-1 1,-2 1,-2l3 0c0,0 0,0 0,0 0,0 1,1 1,1 0,1 0,1 0,1l-1 0c-1,0 -1,0 -1,0 1,0 2,0 2,0 0,0 1,0 1,0 0,0 0,0 0,0l0 0c-1,-3 -1,-6 -2,-8 0,0 0,0 -1,0 -1,2 -3,5 -4,7 0,1 0,1 0,1l-1 0zm6 -7c0,1 0,3 0,4l-3 0c0,0 0,0 0,0 1,-1 2,-3 2,-4l1 0z"/>
        <path class="fil3"
              d="M53 13c0,0 0,0 0,0 0,0 0,0 -1,0 0,0 -1,0 -2,0 0,0 0,0 0,0l2 0 -1 2c0,1 0,1 -1,1 -1,0 -2,-1 -2,-1 -1,-1 -1,-2 -1,-2 0,-2 1,-3 2,-4 1,-1 1,-1 2,-1 1,0 1,0 1,1 0,0 0,0 0,0l0 1c1,0 1,0 1,0 0,-1 0,-1 0,-2 0,0 -1,0 -1,0 -1,0 -2,0 -4,0 -1,1 -2,3 -2,5 0,1 0,2 1,2 1,1 2,1 3,1 1,0 2,0 2,0l1 -3c0,0 0,0 0,0l0 0z"/>
 </g>
</svg>
