<?xml version="1.0" encoding="UTF-8"?>
<svg width="24" height="24" viewBox="0 0 24 24" fill="none" xmlns="http://www.w3.org/2000/svg">
    <g id="Stockholm-icons-/-General-/-Binocular" stroke="none" stroke-width="1" fill="none" fill-rule="evenodd">
        <path opacity="0.3"
              d="M9.16049 20.1958C9.62998 21.2572 10.6925 22 11.9258 22C13.159 22 14.2215 21.2572 14.691 20.1958H9.16049Z"
              fill="#000000"/>
        <path opacity="0.3"
              d="M11.9255 3.91081C12.7394 3.91081 13.5208 4.0544 14.246 4.3173V4.22797C14.246 2.99946 13.2465 2 12.0181 2H11.8334C10.6049 2 9.60547 2.99946 9.60547 4.22797V4.31616C10.3303 4.05405 11.1115 3.91081 11.9255 3.91081V3.91081Z"
              fill="#000000"/>
        <path
            d="M19.2491 19.022H4.60238C4.32528 19.022 4.07147 18.8351 4.01383 18.564C3.95678 18.2957 4.0791 18.0308 4.32724 17.9161C4.38613 17.8779 4.82936 17.568 5.27309 16.6303C6.08807 14.9084 6.25913 12.4827 6.25913 10.751C6.25913 7.6265 8.8011 5.08462 11.9255 5.08462C15.0426 5.08462 17.5799 7.61426 17.5919 10.7285C17.5922 10.736 17.5923 10.7435 17.5923 10.751C17.5923 12.4827 17.7634 14.9084 18.5784 16.6303C19.0221 17.568 19.4653 17.878 19.5242 17.9161C19.7724 18.0308 19.8947 18.2956 19.8376 18.564C19.78 18.8351 19.5262 19.022 19.2491 19.022ZM19.5308 17.9203H19.5312H19.5308Z"
            fill="#000000"/>
    </g>
</svg>
